<mxfile host="app.diagrams.net" modified="2023-11-06T15:11:26.195Z" agent="Mozilla/5.0 (Windows NT 10.0; Win64; x64) AppleWebKit/537.36 (KHTML, like Gecko) Chrome/118.0.0.0 Safari/537.36" etag="mcAmHdvWxznunmRRc4cX" version="22.0.8" type="device">
  <diagram name="Trang-1" id="u5Rbldjkn4hw5jRIg1GD">
    <mxGraphModel dx="1434" dy="758" grid="1" gridSize="10" guides="1" tooltips="1" connect="1" arrows="1" fold="1" page="1" pageScale="1" pageWidth="827" pageHeight="1169" math="0" shadow="0">
      <root>
        <mxCell id="0" />
        <mxCell id="1" parent="0" />
        <mxCell id="19exx7xZQ7I0sAk4qHJt-3" value="" style="edgeStyle=orthogonalEdgeStyle;rounded=0;orthogonalLoop=1;jettySize=auto;html=1;" edge="1" parent="1" source="19exx7xZQ7I0sAk4qHJt-1" target="19exx7xZQ7I0sAk4qHJt-2">
          <mxGeometry relative="1" as="geometry" />
        </mxCell>
        <mxCell id="19exx7xZQ7I0sAk4qHJt-1" value="start" style="ellipse;whiteSpace=wrap;html=1;" vertex="1" parent="1">
          <mxGeometry x="410" y="30" width="120" height="80" as="geometry" />
        </mxCell>
        <mxCell id="19exx7xZQ7I0sAk4qHJt-15" style="edgeStyle=orthogonalEdgeStyle;rounded=0;orthogonalLoop=1;jettySize=auto;html=1;entryX=0.5;entryY=0;entryDx=0;entryDy=0;" edge="1" parent="1" source="19exx7xZQ7I0sAk4qHJt-2" target="19exx7xZQ7I0sAk4qHJt-6">
          <mxGeometry relative="1" as="geometry" />
        </mxCell>
        <mxCell id="19exx7xZQ7I0sAk4qHJt-16" style="edgeStyle=orthogonalEdgeStyle;rounded=0;orthogonalLoop=1;jettySize=auto;html=1;entryX=0.5;entryY=0;entryDx=0;entryDy=0;" edge="1" parent="1" source="19exx7xZQ7I0sAk4qHJt-2" target="19exx7xZQ7I0sAk4qHJt-7">
          <mxGeometry relative="1" as="geometry" />
        </mxCell>
        <mxCell id="19exx7xZQ7I0sAk4qHJt-2" value="input a,b" style="shape=parallelogram;perimeter=parallelogramPerimeter;whiteSpace=wrap;html=1;fixedSize=1;" vertex="1" parent="1">
          <mxGeometry x="410" y="160" width="120" height="60" as="geometry" />
        </mxCell>
        <mxCell id="19exx7xZQ7I0sAk4qHJt-17" style="edgeStyle=orthogonalEdgeStyle;rounded=0;orthogonalLoop=1;jettySize=auto;html=1;" edge="1" parent="1" source="19exx7xZQ7I0sAk4qHJt-4" target="19exx7xZQ7I0sAk4qHJt-8">
          <mxGeometry relative="1" as="geometry" />
        </mxCell>
        <mxCell id="19exx7xZQ7I0sAk4qHJt-4" value="input +" style="shape=parallelogram;perimeter=parallelogramPerimeter;whiteSpace=wrap;html=1;fixedSize=1;" vertex="1" parent="1">
          <mxGeometry x="70" y="270" width="120" height="60" as="geometry" />
        </mxCell>
        <mxCell id="19exx7xZQ7I0sAk4qHJt-18" value="" style="edgeStyle=orthogonalEdgeStyle;rounded=0;orthogonalLoop=1;jettySize=auto;html=1;" edge="1" parent="1" source="19exx7xZQ7I0sAk4qHJt-5" target="19exx7xZQ7I0sAk4qHJt-9">
          <mxGeometry relative="1" as="geometry" />
        </mxCell>
        <mxCell id="19exx7xZQ7I0sAk4qHJt-5" value="input-" style="shape=parallelogram;perimeter=parallelogramPerimeter;whiteSpace=wrap;html=1;fixedSize=1;" vertex="1" parent="1">
          <mxGeometry x="290" y="270" width="120" height="60" as="geometry" />
        </mxCell>
        <mxCell id="19exx7xZQ7I0sAk4qHJt-19" value="" style="edgeStyle=orthogonalEdgeStyle;rounded=0;orthogonalLoop=1;jettySize=auto;html=1;" edge="1" parent="1" source="19exx7xZQ7I0sAk4qHJt-6" target="19exx7xZQ7I0sAk4qHJt-10">
          <mxGeometry relative="1" as="geometry" />
        </mxCell>
        <mxCell id="19exx7xZQ7I0sAk4qHJt-6" value="input *" style="shape=parallelogram;perimeter=parallelogramPerimeter;whiteSpace=wrap;html=1;fixedSize=1;" vertex="1" parent="1">
          <mxGeometry x="510" y="270" width="120" height="60" as="geometry" />
        </mxCell>
        <mxCell id="19exx7xZQ7I0sAk4qHJt-20" value="" style="edgeStyle=orthogonalEdgeStyle;rounded=0;orthogonalLoop=1;jettySize=auto;html=1;" edge="1" parent="1" source="19exx7xZQ7I0sAk4qHJt-7" target="19exx7xZQ7I0sAk4qHJt-11">
          <mxGeometry relative="1" as="geometry" />
        </mxCell>
        <mxCell id="19exx7xZQ7I0sAk4qHJt-7" value="input /" style="shape=parallelogram;perimeter=parallelogramPerimeter;whiteSpace=wrap;html=1;fixedSize=1;" vertex="1" parent="1">
          <mxGeometry x="710" y="270" width="120" height="60" as="geometry" />
        </mxCell>
        <mxCell id="19exx7xZQ7I0sAk4qHJt-8" value="output a+b" style="shape=parallelogram;perimeter=parallelogramPerimeter;whiteSpace=wrap;html=1;fixedSize=1;" vertex="1" parent="1">
          <mxGeometry x="70" y="430" width="120" height="60" as="geometry" />
        </mxCell>
        <mxCell id="19exx7xZQ7I0sAk4qHJt-24" style="edgeStyle=orthogonalEdgeStyle;rounded=0;orthogonalLoop=1;jettySize=auto;html=1;" edge="1" parent="1" source="19exx7xZQ7I0sAk4qHJt-9" target="19exx7xZQ7I0sAk4qHJt-21">
          <mxGeometry relative="1" as="geometry" />
        </mxCell>
        <mxCell id="19exx7xZQ7I0sAk4qHJt-9" value="output a-b" style="shape=parallelogram;perimeter=parallelogramPerimeter;whiteSpace=wrap;html=1;fixedSize=1;" vertex="1" parent="1">
          <mxGeometry x="290" y="430" width="120" height="60" as="geometry" />
        </mxCell>
        <mxCell id="19exx7xZQ7I0sAk4qHJt-25" style="edgeStyle=orthogonalEdgeStyle;rounded=0;orthogonalLoop=1;jettySize=auto;html=1;entryX=0.5;entryY=0;entryDx=0;entryDy=0;" edge="1" parent="1" source="19exx7xZQ7I0sAk4qHJt-10" target="19exx7xZQ7I0sAk4qHJt-21">
          <mxGeometry relative="1" as="geometry" />
        </mxCell>
        <mxCell id="19exx7xZQ7I0sAk4qHJt-10" value="output a*b" style="shape=parallelogram;perimeter=parallelogramPerimeter;whiteSpace=wrap;html=1;fixedSize=1;" vertex="1" parent="1">
          <mxGeometry x="510" y="430" width="120" height="60" as="geometry" />
        </mxCell>
        <mxCell id="19exx7xZQ7I0sAk4qHJt-11" value="output&amp;nbsp; a/b" style="shape=parallelogram;perimeter=parallelogramPerimeter;whiteSpace=wrap;html=1;fixedSize=1;" vertex="1" parent="1">
          <mxGeometry x="710" y="430" width="120" height="60" as="geometry" />
        </mxCell>
        <mxCell id="19exx7xZQ7I0sAk4qHJt-12" style="edgeStyle=orthogonalEdgeStyle;rounded=0;orthogonalLoop=1;jettySize=auto;html=1;entryX=0.625;entryY=-0.017;entryDx=0;entryDy=0;entryPerimeter=0;" edge="1" parent="1" source="19exx7xZQ7I0sAk4qHJt-2" target="19exx7xZQ7I0sAk4qHJt-4">
          <mxGeometry relative="1" as="geometry" />
        </mxCell>
        <mxCell id="19exx7xZQ7I0sAk4qHJt-14" style="edgeStyle=orthogonalEdgeStyle;rounded=0;orthogonalLoop=1;jettySize=auto;html=1;entryX=0.575;entryY=0.017;entryDx=0;entryDy=0;entryPerimeter=0;" edge="1" parent="1" source="19exx7xZQ7I0sAk4qHJt-2" target="19exx7xZQ7I0sAk4qHJt-5">
          <mxGeometry relative="1" as="geometry" />
        </mxCell>
        <mxCell id="19exx7xZQ7I0sAk4qHJt-21" value="end" style="ellipse;whiteSpace=wrap;html=1;" vertex="1" parent="1">
          <mxGeometry x="400" y="600" width="120" height="80" as="geometry" />
        </mxCell>
        <mxCell id="19exx7xZQ7I0sAk4qHJt-23" style="edgeStyle=orthogonalEdgeStyle;rounded=0;orthogonalLoop=1;jettySize=auto;html=1;entryX=0;entryY=0.588;entryDx=0;entryDy=0;entryPerimeter=0;" edge="1" parent="1" source="19exx7xZQ7I0sAk4qHJt-8" target="19exx7xZQ7I0sAk4qHJt-21">
          <mxGeometry relative="1" as="geometry">
            <Array as="points">
              <mxPoint x="130" y="560" />
              <mxPoint x="295" y="560" />
              <mxPoint x="295" y="647" />
            </Array>
          </mxGeometry>
        </mxCell>
        <mxCell id="19exx7xZQ7I0sAk4qHJt-26" style="edgeStyle=orthogonalEdgeStyle;rounded=0;orthogonalLoop=1;jettySize=auto;html=1;entryX=1.017;entryY=0.6;entryDx=0;entryDy=0;entryPerimeter=0;" edge="1" parent="1" source="19exx7xZQ7I0sAk4qHJt-11" target="19exx7xZQ7I0sAk4qHJt-21">
          <mxGeometry relative="1" as="geometry">
            <Array as="points">
              <mxPoint x="770" y="570" />
              <mxPoint x="522" y="570" />
            </Array>
          </mxGeometry>
        </mxCell>
      </root>
    </mxGraphModel>
  </diagram>
</mxfile>
